<svg xmlns="http://www.w3.org/2000/svg" viewBox="0 0 32 26"><g fill="#770C56" fill-rule="evenodd"><path d="M.0773378 12.9617647c0-2.4960125.46402213-4.84975364 1.3920803-7.0612941.9280582-2.21154047 2.26444193-4.17069736 4.0091913-5.87752942h3.5080424C5.3486637 3.58342956 3.52969696 7.8963276 3.52969696 12.9617647s1.81896675 9.3783352 5.45695482 12.9388236H5.4786094c-1.74474937-1.7068322-3.0811331-3.665989-4.0091913-5.8775295C.54135994 17.8115184.0773378 15.4577772.0773378 12.9617647zm31.3604759 0c0 2.4960125-.4640221 4.8497537-1.3920803 7.0612941-.9280582 2.2115405-2.2644419 4.1706973-4.0091913 5.8775295h-3.5080423c3.637988-3.5604884 5.4569547-7.8733865 5.4569547-12.9388236S26.1664878 3.58342956 22.5284998.02294118h3.5080423c1.7447494 1.70683206 3.0811331 3.66598895 4.0091913 5.8775294.9280582 2.21154048 1.3920803 4.56528162 1.3920803 7.06129412zM12.954081 1.720588h2.32013386v13.1911764H12.954081z"/><path d="M15.2730361 14.8705222l-1.50386718-1.487004 9.43334868-9.3275703 1.5038672 1.48700398-9.4333487 9.32757032"/></g></svg>